PathFileType	4	(X/Y/Z)	D:\Share\Shared_Data\Ergonomics\Sit To Stand Pertubation\S1\S1 Cal 01.trc
DataRate	CameraRate	NumFrames	NumMarkers	Units	OrigDataRate	OrigDataStartFrame	OrigNumFrames	
100	100	12	21	mm	100	178	237
Frame#	Time	R_ASIS			R_Pelvis			V_Sacral			L_Pelvis			L_ASIS			Clavical			R_Acromium			L_Acromium			Sternum			Torso			R_Thigh_Med			R_Thigh_Lat			R_Thigh			R_Shank_Med			R_Shank_Lat			R_Shank			R_Heel			R_Toe			RAJC			RHJC			RKJC			
		X1	Y1	Z1	X2	Y2	Z2	X3	Y3	Z3	X4	Y4	Z4	X5	Y5	Z5	X6	Y6	Z6	X7	Y7	Z7	X8	Y8	Z8	X9	Y9	Z9	X10	Y10	Z10	X11	Y11	Z11	X12	Y12	Z12	X13	Y13	Z13	X14	Y14	Z14	X15	Y15	Z15	X16	Y16	Z16	X17	Y17	Z17	X18	Y18	Z18	X19	Y19	Z19	X20	Y20	Z20	X21	Y21	Z21	

178	1.77	444.24789	912.63245	69.959679	378.00281	911.21161	96.607971	301.01141	906.55792	-61.500629	419.35754	900.45496	-190.93449	497.64084	899.81372	-128.04994	440.93771	1254.3447	-43.955471	348.49124	1316.0717	96.377213	388.69287	1318.4724	-185.65468	410.04248	1263.9324	55.35717	445.14035	1259.3816	-105.07828	334.70053	419.46481	5.7300348	361.47073	441.35803	131.75874	449.78622	599.02899	76.888718	330.09265	96.048332	51.14164	309.5137	96.000565	130.12158	324.90622	307.91934	150.96394	263.31427	39.251541	75.977455	469.522	50.112843	91.444038	319.803175	96.0244485	90.63161	400.7908247	838.3654883	34.37468127	348.08563	430.41142	68.7443874
179	1.78	444.15265	912.62701	70.011353	377.88385	911.19141	96.623192	300.87448	906.4696	-61.422981	419.28281	900.40955	-190.92165	497.49319	899.81781	-127.99679	440.86301	1254.3125	-43.917187	348.49033	1316.071	96.477463	388.54703	1318.4949	-185.70363	410.01859	1263.9185	55.422272	445.05832	1259.3707	-105.01135	334.668	419.44376	5.8117828	361.4519	441.34567	131.78174	449.72519	599.02209	76.924393	330.06702	96.028343	51.152187	309.53317	95.99794	130.15096	324.89462	307.89774	150.99217	263.31345	39.241421	75.984184	469.52124	50.140121	91.47123	319.800095	96.0131415	90.6515735	400.7192464	838.3403614	34.44660373	348.05995	430.394715	68.7967614
180	1.79	444.07291	912.63239	70.063896	377.75378	911.17151	96.608841	300.7793	906.42841	-61.394993	419.19473	900.37451	-190.87547	497.41678	899.81067	-127.92255	440.77509	1254.2734	-43.874794	348.50858	1316.0638	96.555443	388.45111	1318.4772	-185.64966	409.97934	1263.8839	55.467926	444.96841	1259.3489	-104.97273	334.63766	419.43204	5.8516989	361.43744	441.33554	131.84	449.66727	599.02423	76.955978	330.04611	96.015862	51.165051	309.51117	95.957016	130.14973	324.8663	307.8725	151.01402	263.3136	39.216831	75.972366	469.50345	50.146446	91.464859	319.77864	95.986439	90.6573905	400.6494835	838.3384237	34.50846494	348.03755	430.38379	68.84584945
181	1.8	443.98639	912.62097	70.096169	377.67651	911.1546	96.673782	300.6748	906.40277	-61.386215	419.11642	900.35852	-190.84741	497.28604	899.78467	-127.92319	440.71271	1254.2438	-43.838936	348.50763	1316.0538	96.621696	388.35114	1318.484	-185.60561	409.93564	1263.8463	55.521175	444.88913	1259.3246	-104.92027	334.61359	419.43723	5.940834	361.40259	441.3306	131.86757	449.5943	599.0249	76.991501	330.04166	96.018929	51.176723	309.49216	95.935806	130.15428	324.83536	307.8598	151.0153	263.30316	39.208427	75.99321	469.50473	50.144981	91.478897	319.76691	95.9773675	90.6655015	400.5561483	838.3176096	34.55390699	348.00809	430.383915	68.904202
182	1.81	443.88992	912.62177	70.121109	377.62964	911.13116	96.757347	300.58688	906.37384	-61.395275	419.05713	900.35059	-190.79706	497.17758	899.76953	-127.89027	440.64749	1254.2424	-43.810524	348.49057	1316.049	96.689217	388.28	1318.493	-185.52959	409.91251	1263.8362	55.573673	444.78677	1259.3085	-104.88573	334.55542	419.4321	5.9011312	361.38025	441.3255	131.87823	449.54785	599.01611	77.005333	330.01898	96.013275	51.178566	309.47379	95.947464	130.14226	324.80557	307.83447	151.02715	263.27701	39.20002	76.036385	469.51819	50.142982	91.460754	319.746385	95.9803695	90.660413	400.4656758	838.3137566	34.59103935	347.967835	430.3788	68.8896806
183	1.82	443.79614	912.61371	70.139252	377.52795	911.11737	96.75663	300.5141	906.33105	-61.361759	419.00748	900.3374	-190.74519	497.12595	899.78168	-127.84342	440.60443	1254.2344	-43.78672	348.50909	1316.0306	96.744423	388.21194	1318.5031	-185.49454	409.87793	1263.8273	55.622143	444.71426	1259.2922	-104.84074	334.5376	419.40164	5.9362316	361.36566	441.3028	131.89987	449.44983	599.00391	77.00354	329.99396	95.994621	51.174435	309.46786	95.927269	130.16441	324.79709	307.80145	151.01634	263.27914	39.158573	76.050697	469.48074	50.147053	91.464668	319.73091	95.960945	90.6694225	400.3999179	838.2997586	34.60081803	347.95163	430.35222	68.9180508
184	1.83	443.70261	912.60876	70.144829	377.40405	911.10187	96.761253	300.44873	906.31134	-61.353062	418.96082	900.33685	-190.745	497.06747	899.78583	-127.78262	440.58563	1254.2352	-43.77697	348.50745	1316.0232	96.784698	388.14749	1318.5088	-185.48314	409.85638	1263.8136	55.6665	444.63635	1259.265	-104.80581	334.52234	419.38516	5.9602475	361.33075	441.27951	131.91438	449.37473	598.99597	77.024086	329.97632	95.971947	51.167545	309.46805	95.902405	130.18637	324.81921	307.78946	151.0466	263.27802	39.158939	76.029999	469.48883	50.1614	91.473534	319.722185	95.937176	90.6769575	400.3228503	838.3035217	34.60337113	347.926545	430.332335	68.93731375
185	1.84	443.57983	912.60168	70.113861	377.38232	911.08807	96.740829	300.38855	906.29669	-61.343697	418.90692	900.36121	-190.73111	496.9769	899.80701	-127.75359	440.57208	1254.2384	-43.74839	348.51779	1316.0242	96.837814	388.10959	1318.4968	-185.42769	409.88583	1263.7921	55.700073	444.56821	1259.2375	-104.78062	334.49475	419.40036	5.9917383	361.32159	441.27567	131.90497	449.36972	599.0152	77.010681	329.96243	95.97348	51.172256	309.46964	95.899239	130.19888	324.8038	307.77695	151.03465	263.27185	39.165047	76.051949	469.49686	50.167263	91.472809	319.716035	95.9363595	90.685568	400.2285952	838.3084897	34.56705159	347.90817	430.338015	68.94835415
186	1.85	443.52106	912.60144	70.106186	377.3399	911.0752	96.751686	300.32617	906.289	-61.376759	418.83142	900.37122	-190.76208	496.9151	899.8313	-127.74813	440.55826	1254.2344	-43.727299	348.52927	1316.0227	96.913811	388.08948	1318.5076	-185.40445	409.87827	1263.7932	55.712864	444.51025	1259.2068	-104.73982	334.46317	419.39023	5.9701257	361.3183	441.2576	131.90173	449.36072	599.01056	77.020744	329.95035	95.969223	51.204098	309.46521	95.902191	130.21608	324.79391	307.74756	151.04033	263.26462	39.152191	76.142395	469.46664	50.157612	91.469933	319.70778	95.935707	90.710089	400.1762193	838.3107152	34.55476667	347.890735	430.323915	68.93592785
187	1.86	443.48425	912.60333	70.087296	377.24484	911.05701	96.692245	300.28183	906.25671	-61.358597	418.76462	900.35144	-190.73338	496.86359	899.849	-127.74635	440.55753	1254.2274	-43.711491	348.55444	1316.0358	96.960953	388.05972	1318.5117	-185.39574	409.91226	1263.7965	55.744389	444.46622	1259.1735	-104.72787	334.44891	419.35532	5.9991655	361.32367	441.25964	131.91032	449.31546	599.00665	76.995956	329.91382	95.925568	51.183624	309.4472	95.878716	130.2112	324.80099	307.74005	151.07416	263.25693	39.101349	76.091293	469.48941	50.160244	91.472839	319.68051	95.902142	90.697412	400.1563579	838.3093769	34.54203854	347.88629	430.30748	68.95474275
188	1.87	443.41895	912.58429	70.063934	377.24084	911.04608	96.677849	300.23785	906.25348	-61.368309	418.69635	900.36835	-190.7592	496.78302	899.80737	-127.79253	440.55847	1254.2156	-43.69379	348.58405	1316.0586	97.002975	388.06509	1318.5048	-185.37051	409.92459	1263.7848	55.765575	444.46121	1259.1641	-104.70596	334.41742	419.35522	5.9814911	361.33499	441.25827	131.88681	449.32272	599.01141	76.971985	329.90732	95.940689	51.186218	309.45621	95.879494	130.21812	324.80673	307.73099	151.06369	263.25449	39.116314	76.104568	469.47986	50.173397	91.476768	319.681765	95.9100915	90.702169	400.083616	838.2895209	34.52651158	347.876205	430.306745	68.93415055
189	1.88	443.40585	912.58197	70.021469	377.25687	911.04517	96.726051	300.19666	906.25232	-61.395432	418.6413	900.36267	-190.828	496.71268	899.84131	-127.78699	440.57901	1254.2018	-43.684036	348.63354	1316.0574	97.006363	388.08694	1318.4932	-185.35773	409.96674	1263.7944	55.778282	444.49789	1259.156	-104.69173	334.39758	419.35483	5.9746227	361.34088	441.25049	131.88904	449.28351	599.02057	76.938461	329.89807	95.946022	51.184109	309.4505	95.878548	130.21577	324.81244	307.74146	151.05104	263.2428	39.128426	76.191177	469.49603	50.195206	91.495712	319.674285	95.912285	90.6999395	400.068202	838.3068934	34.49247849	347.86923	430.30266	68.93183135
